<?xml version="1.0" encoding="UTF-8" standalone="no"?>
<!-- Created with Inkscape (http://www.inkscape.org/) -->

<svg
   xmlns:dc="http://purl.org/dc/elements/1.1/"
   xmlns:cc="http://creativecommons.org/ns#"
   xmlns:rdf="http://www.w3.org/1999/02/22-rdf-syntax-ns#"
   xmlns:svg="http://www.w3.org/2000/svg"
   xmlns="http://www.w3.org/2000/svg"
   xmlns:sodipodi="http://sodipodi.sourceforge.net/DTD/sodipodi-0.dtd"
   xmlns:inkscape="http://www.inkscape.org/namespaces/inkscape"
   width="32px"
   height="32px"
   id="svg2985"
   version="1.1"
   inkscape:version="0.48.4 r9939"
   sodipodi:docname="play2x.svg">
  <defs
     id="defs2987" />
  <sodipodi:namedview
     id="base"
     pagecolor="#ffffff"
     bordercolor="#666666"
     borderopacity="1.0"
     inkscape:pageopacity="0.0"
     inkscape:pageshadow="2"
     inkscape:zoom="15.836083"
     inkscape:cx="31.712073"
     inkscape:cy="24.688961"
     inkscape:current-layer="layer1"
     showgrid="true"
     inkscape:grid-bbox="true"
     inkscape:document-units="px"
     inkscape:window-width="1280"
     inkscape:window-height="985"
     inkscape:window-x="0"
     inkscape:window-y="0"
     inkscape:window-maximized="1">
    <inkscape:grid
       type="xygrid"
       id="grid2993"
       empspacing="5"
       visible="true"
       enabled="true"
       snapvisiblegridlinesonly="true"
       originx="1px"
       originy="1px" />
  </sodipodi:namedview>
  <metadata
     id="metadata2990">
    <rdf:RDF>
      <cc:Work
         rdf:about="">
        <dc:format>image/svg+xml</dc:format>
        <dc:type
           rdf:resource="http://purl.org/dc/dcmitype/StillImage" />
        <dc:title></dc:title>
      </cc:Work>
    </rdf:RDF>
  </metadata>
  <g
     id="layer1"
     inkscape:label="Layer 1"
     inkscape:groupmode="layer">
    <path
       style="fill:#c0c0c0;fill-opacity:1;stroke:#303030;stroke-width:1.5;stroke-linecap:butt;stroke-linejoin:round;stroke-miterlimit:4;stroke-opacity:1;stroke-dasharray:none"
       d="M 22,4 22,28 10,16 z"
       id="path3014"
       inkscape:connector-curvature="0"
       sodipodi:nodetypes="cccc" />
    <g
       style="font-size:40px;font-style:normal;font-weight:normal;line-height:125%;letter-spacing:0px;word-spacing:0px;fill:#ffffff;fill-opacity:1;stroke:#000000;stroke-width:1.10000002;stroke-miterlimit:4;stroke-opacity:1;font-family:Sans"
       id="text3876">
      <path
         d="m 8.953125,26.789062 5.070313,0 L 13.59375,29 5.125,29 5.5625,26.773437 10.523438,23.03125 c 0.54166,-0.41666 0.953118,-0.838535 1.234375,-1.265625 0.286451,-0.427076 0.42968,-0.841138 0.429687,-1.242188 -7e-6,-0.427074 -0.14584,-0.757803 -0.4375,-0.992187 -0.291673,-0.234365 -0.700527,-0.351553 -1.226562,-0.351563 -0.494797,10e-6 -1.04688,0.09897 -1.6562505,0.296875 -0.6093783,0.192718 -1.2968776,0.492197 -2.0625,0.898438 l 0.5,-2.476563 c 0.7083303,-0.260405 1.4036421,-0.453113 2.0859375,-0.578125 0.682287,-0.130196 1.356765,-0.1953 2.023438,-0.195312 1.187492,1.2e-5 2.122387,0.257824 2.804687,0.773437 0.682282,0.510428 1.023427,1.208344 1.023438,2.09375 -1.1e-5,0.760425 -0.208344,1.453133 -0.625,2.078125 -0.416676,0.625007 -1.333342,1.468756 -2.75,2.53125 l -2.914063,2.1875"
         style="font-size:16px;font-style:italic;font-weight:bold;fill:#ffffff;stroke:#000000;-inkscape-font-specification:Sans Bold Italic"
         id="path4519" />
      <path
         d="M 19.664062,24.523437 17.34375,20.25 l 2.90625,0 1.296875,2.59375 2.273437,-2.59375 3.039063,0 L 22.875,24.507812 25.3125,29 22.398437,29 21.023437,26.234375 18.507812,29 15.46875,29 19.664062,24.523437"
         style="font-size:16px;font-style:italic;font-weight:bold;fill:#ffffff;stroke:#000000;-inkscape-font-specification:Sans Bold Italic"
         id="path4521" />
    </g>
  </g>
</svg>
