<?xml version="1.0" encoding="UTF-8" standalone="no"?>
<!-- Created with Inkscape (http://www.inkscape.org/) -->

<svg
   xmlns:dc="http://purl.org/dc/elements/1.1/"
   xmlns:cc="http://creativecommons.org/ns#"
   xmlns:rdf="http://www.w3.org/1999/02/22-rdf-syntax-ns#"
   xmlns:svg="http://www.w3.org/2000/svg"
   xmlns="http://www.w3.org/2000/svg"
   xmlns:sodipodi="http://sodipodi.sourceforge.net/DTD/sodipodi-0.dtd"
   xmlns:inkscape="http://www.inkscape.org/namespaces/inkscape"
   width="32px"
   height="32px"
   id="svg2985"
   version="1.1"
   inkscape:version="0.48.4 r9939"
   sodipodi:docname="play0.5x.svg">
  <defs
     id="defs2987" />
  <sodipodi:namedview
     id="base"
     pagecolor="#ffffff"
     bordercolor="#666666"
     borderopacity="1.0"
     inkscape:pageopacity="0.0"
     inkscape:pageshadow="2"
     inkscape:zoom="15.836083"
     inkscape:cx="18.531991"
     inkscape:cy="22.033189"
     inkscape:current-layer="layer1"
     showgrid="true"
     inkscape:grid-bbox="true"
     inkscape:document-units="px"
     inkscape:window-width="1280"
     inkscape:window-height="985"
     inkscape:window-x="0"
     inkscape:window-y="0"
     inkscape:window-maximized="1">
    <inkscape:grid
       type="xygrid"
       id="grid2993"
       empspacing="5"
       visible="true"
       enabled="true"
       snapvisiblegridlinesonly="true"
       originx="1px"
       originy="1px" />
  </sodipodi:namedview>
  <metadata
     id="metadata2990">
    <rdf:RDF>
      <cc:Work
         rdf:about="">
        <dc:format>image/svg+xml</dc:format>
        <dc:type
           rdf:resource="http://purl.org/dc/dcmitype/StillImage" />
        <dc:title></dc:title>
      </cc:Work>
    </rdf:RDF>
  </metadata>
  <g
     id="layer1"
     inkscape:label="Layer 1"
     inkscape:groupmode="layer">
    <path
       style="fill:#c0c0c0;fill-opacity:1;stroke:#303030;stroke-width:1.5;stroke-linecap:butt;stroke-linejoin:round;stroke-miterlimit:4;stroke-opacity:1;stroke-dasharray:none"
       d="M 10,4 10,28 22,16 z"
       id="path3014"
       inkscape:connector-curvature="0"
       sodipodi:nodetypes="cccc" />
    <g
       style="font-size:40px;font-style:normal;font-weight:normal;line-height:125%;letter-spacing:0px;word-spacing:0px;fill:#ffffff;fill-opacity:1;stroke:#000000;stroke-width:1.10000002;stroke-miterlimit:4;stroke-opacity:1;font-family:Sans"
       id="text3876">
      <path
         d="m 4.5859375,28.634766 c 0.3007774,1e-6 0.5664021,-0.08984 0.796875,-0.269532 0.2343704,-0.179685 0.4296827,-0.443357 0.5859375,-0.791015 0.1093699,-0.246091 0.2089792,-0.525388 0.2988281,-0.837891 0.089838,-0.316403 0.1738227,-0.689449 0.2519531,-1.119141 0.066401,-0.347651 0.1171819,-0.667963 0.1523438,-0.960937 0.035151,-0.292963 0.052729,-0.542963 0.052734,-0.75 -5.7e-6,-0.437493 -0.078131,-0.757806 -0.234375,-0.960938 -0.1562554,-0.207023 -0.3984426,-0.310539 -0.7265625,-0.310546 -0.304692,7e-6 -0.5722698,0.0879 -0.8027344,0.263671 -0.2304725,0.171882 -0.4218785,0.435554 -0.5742188,0.791016 -0.1171907,0.253912 -0.2246125,0.542975 -0.3222656,0.867188 -0.093753,0.324223 -0.1757841,0.677739 -0.2460937,1.060546 -0.066409,0.351567 -0.1171902,0.677739 -0.1523438,0.978516 -0.035159,0.300784 -0.052737,0.55469 -0.052734,0.761719 -2.7e-6,0.433596 0.080075,0.755861 0.2402343,0.966797 0.1601533,0.207032 0.4042936,0.310548 0.7324219,0.310547 M 8.921875,24.240234 c -7.9e-6,0.777349 -0.1074297,1.533208 -0.3222656,2.267578 -0.2148512,0.734378 -0.5156321,1.378909 -0.9023438,1.933594 -0.3945375,0.570314 -0.8710996,1.001954 -1.4296875,1.294922 -0.5585984,0.289063 -1.1816447,0.433594 -1.8691406,0.433594 -0.9570337,0 -1.691408,-0.271484 -2.203125,-0.814453 -0.5078132,-0.542968 -0.7617192,-1.324217 -0.7617188,-2.34375 -4e-7,-0.765621 0.1054683,-1.515621 0.3164063,-2.25 0.2148428,-0.738276 0.5136706,-1.380853 0.8964844,-1.927735 0.4023417,-0.574211 0.8808568,-1.007804 1.4355468,-1.300781 0.5546839,-0.29296 1.1796833,-0.439444 1.875,-0.439453 0.9492129,9e-6 1.6796809,0.273446 2.1914063,0.820312 0.5156173,0.542977 0.7734296,1.318367 0.7734375,2.326172"
         style="font-size:12px"
         id="path4501" />
      <path
         d="m 10.339844,27.732422 2.109375,0 L 12.009766,30 9.8945313,30 10.339844,27.732422"
         style="font-size:12px"
         id="path4503" />
      <path
         d="m 16.035156,21.251953 5.607422,0 -0.322266,1.658203 -3.808593,0 -0.263672,1.353516 c 0.171871,-0.04687 0.349606,-0.08203 0.533203,-0.105469 0.187496,-0.02734 0.374996,-0.04101 0.5625,-0.04102 0.894526,6e-6 1.593744,0.205084 2.097656,0.615235 0.503899,0.406255 0.755852,0.970707 0.75586,1.693359 -8e-6,1.14844 -0.388679,2.060549 -1.166016,2.736328 -0.777349,0.671876 -1.832036,1.007813 -3.164063,1.007813 -0.488283,0 -0.962892,-0.04883 -1.423828,-0.146485 -0.460938,-0.09375 -0.917969,-0.238281 -1.371093,-0.433593 l 0.345703,-1.775391 c 0.433593,0.281252 0.853514,0.488283 1.259765,0.621094 0.410154,0.132814 0.82617,0.19922 1.248047,0.199219 0.617184,1e-6 1.111324,-0.160155 1.482422,-0.480469 0.371089,-0.324217 0.556636,-0.748044 0.556641,-1.271485 -5e-6,-0.374996 -0.14063,-0.671871 -0.421875,-0.890625 -0.281255,-0.222652 -0.664067,-0.33398 -1.148438,-0.333984 -0.328128,4e-6 -0.683596,0.04297 -1.066406,0.128906 -0.378908,0.08204 -0.794923,0.210942 -1.248047,0.386719 l 0.955078,-4.921875"
         style="font-size:12px"
         id="path4505" />
      <path
         d="m 24.912109,26.642578 -1.740234,-3.205078 2.179687,0 0.972657,1.945312 1.705078,-1.945312 2.279297,0 -2.988282,3.193359 L 29.148437,30 26.962891,30 25.931641,27.925781 24.044922,30 l -2.279297,0 3.146484,-3.357422"
         style="font-size:12px"
         id="path4507" />
    </g>
  </g>
</svg>
